<svg xmlns="http://www.w3.org/2000/svg" viewBox="0 0 1080 255.29"><defs><style>.cls-1{fill:#f21051;}.cls-2{fill:#fff;}</style></defs><title>logo-brancaAtivo 1</title><g id="Camada_2" data-name="Camada 2"><g id="Camada_1-2" data-name="Camada 1"><path class="cls-1" d="M0,0H51.87V255.29H0ZM154.39,0h51.87V255.29H154.39V162.9H72.54V111h81.85Z"/><path class="cls-1" d="M217.65,52.68h51.86V154a49.44,49.44,0,1,0,98.88,0V52.68h51.87V154a99.18,99.18,0,0,1-7.9,39.51,101.21,101.21,0,0,1-53.9,53.89,102.75,102.75,0,0,1-79,0,101.23,101.23,0,0,1-53.89-53.89,99.18,99.18,0,0,1-7.9-39.51Z"/><path class="cls-1" d="M485.73,65.65a106.17,106.17,0,0,1,23.51-9.53,97.8,97.8,0,0,1,25.93-3.44,99.25,99.25,0,0,1,39.51,7.9,101.12,101.12,0,0,1,53.89,53.9,102.63,102.63,0,0,1,0,79,101.14,101.14,0,0,1-53.89,53.89,102.75,102.75,0,0,1-79,0,101.14,101.14,0,0,1-53.89-53.89A99.19,99.19,0,0,1,433.86,154V0h51.87Zm49.44,137.77a49.44,49.44,0,1,0,0-98.87,47.62,47.62,0,0,0-19,3.85,53.67,53.67,0,0,0-15.6,10.13,45.71,45.71,0,0,0-10.53,15A50.41,50.41,0,0,0,485.73,152v2a49.26,49.26,0,0,0,49.44,49.43"/><path class="cls-2" d="M807.48,154a49.44,49.44,0,1,0-98.88,0v101.3H656.73V154a99.35,99.35,0,0,1,7.9-39.51,101.27,101.27,0,0,1,53.9-53.9,102.75,102.75,0,0,1,79,0,101.18,101.18,0,0,1,53.9,53.9,99.35,99.35,0,0,1,7.9,39.51Z"/><path class="cls-2" d="M978.69,52.68a97.1,97.1,0,0,1,33.43,5.67,110.39,110.39,0,0,1,28.57,15.4l-31.6,41.33a49.3,49.3,0,0,0-30.4-10.53,47.49,47.49,0,0,0-25.12,6.89,50.08,50.08,0,0,0-17.83,18.23h141.42v.41A95.13,95.13,0,0,1,1080,154a99.18,99.18,0,0,1-7.9,39.51,101.21,101.21,0,0,1-53.9,53.89,99.18,99.18,0,0,1-39.51,7.9,97.19,97.19,0,0,1-32.82-5.47A112.93,112.93,0,0,1,917.5,235l31.61-41.33a59,59,0,0,0,14,7.09,46.63,46.63,0,0,0,15.6,2.63,47.52,47.52,0,0,0,25.13-6.88,50.27,50.27,0,0,0,17.83-18.24H880.22q-1.22-5.67-2-11.75a93.34,93.34,0,0,1-.81-12.56,99.18,99.18,0,0,1,7.9-39.51,101.21,101.21,0,0,1,53.89-53.9,99.18,99.18,0,0,1,39.51-7.9"/></g></g></svg>